<svg width="148" height="143" viewBox="0 0 148 143" fill="none" xmlns="http://www.w3.org/2000/svg">
  <path d="M28.9181 138.868C32.7421 141.646 37.1816 142.987 41.5888 142.987C48.2214 142.987 54.7671 139.949 58.9797 134.24C58.9917 134.228 59.0032 134.215 59.014 134.202C59.0241 134.189 59.0343 134.175 59.0438 134.162L59.0584 134.141C59.0686 134.127 59.0781 134.113 59.0877 134.1L73.9944 113.59L88.9011 134.1C88.9157 134.122 88.931 134.139 88.9456 134.158C88.9526 134.167 88.9589 134.176 88.9659 134.186C95.9874 143.755 109.479 145.863 119.082 138.878C128.695 131.894 130.845 118.39 123.91 108.746L123.895 108.722C123.882 108.702 123.872 108.686 123.856 108.67L108.982 88.149L133.081 80.2999C144.401 76.613 150.623 64.3849 146.939 53.0536C143.257 41.7229 131.05 35.4953 119.719 39.1714L95.6202 46.9885L95.6094 21.6129C95.598 9.69819 85.9087 0 74.0052 0C62.1016 0 52.4124 9.69819 52.4016 21.6237L52.38 46.9777L28.2809 39.1606C28.2714 39.1606 28.2598 39.1585 28.2481 39.1552C28.2329 39.1511 28.2173 39.145 28.2052 39.139C16.8956 35.5062 4.73268 41.7337 1.06005 53.0434C-2.61264 64.3525 3.56615 76.5374 14.8325 80.2566C14.8429 80.2598 14.8522 80.2636 14.8612 80.2674L14.9009 80.2827L14.919 80.289L39.0071 88.1382L24.1328 108.66C24.1274 108.67 24.1194 108.681 24.1114 108.692C24.1032 108.703 24.0952 108.714 24.0898 108.724C17.1441 118.368 19.3045 131.883 28.9181 138.868Z" fill="#2F80ED" />
</svg>