<svg width="24" height="24" viewBox="0 0 24 24" fill="none" xmlns="http://www.w3.org/2000/svg">
  <g clip-path="url(#clip0_3_64)">
    <path d="M14.4998 6.99994C13.5682 6.98545 12.6689 7.34155 11.9998 7.98994C11.4853 7.50956 10.8403 7.19211 10.1458 7.07756C9.45133 6.96301 8.73848 7.05648 8.09702 7.34621C7.45556 7.63594 6.91415 8.10897 6.54095 8.70575C6.16776 9.30253 5.97947 9.99638 5.99978 10.6999C5.99978 13.9559 10.8738 17.4359 11.4298 17.8209C11.5972 17.9371 11.796 17.9993 11.9998 17.9993C12.2035 17.9993 12.4024 17.9371 12.5698 17.8209C13.1258 17.4359 17.9998 13.9559 17.9998 10.6999C18.0245 9.74565 17.6701 8.82044 17.0141 8.12695C16.3581 7.43345 15.454 7.0282 14.4998 6.99994ZM11.9998 15.7619C10.2588 14.4319 7.99978 12.2019 7.99978 10.6999C7.92378 8.69394 10.9128 8.29994 10.9998 10.4539V10.9999C10.9998 11.2652 11.1051 11.5195 11.2927 11.707C11.4802 11.8946 11.7346 11.9999 11.9998 11.9999C12.265 11.9999 12.5194 11.8946 12.7069 11.707C12.8944 11.5195 12.9998 11.2652 12.9998 10.9999V10.4539C13.0868 8.30194 16.0758 8.69394 15.9998 10.6999C15.9998 12.1999 13.7408 14.4319 11.9998 15.7619ZM12.8358 0.0279418C11.1215 -0.0918502 9.40151 0.157943 7.79213 0.760424C6.18275 1.3629 4.72155 2.30402 3.50737 3.52009C2.29319 4.73617 1.35436 6.19884 0.754391 7.80915C0.154423 9.41947 -0.0926865 11.1399 0.0297806 12.8539C0.469781 19.2079 6.08178 23.9999 13.0828 23.9999H18.9998C20.3254 23.9984 21.5962 23.4711 22.5336 22.5337C23.4709 21.5964 23.9982 20.3255 23.9998 18.9999V12.3399C24.0368 9.25745 22.9066 6.27503 20.8358 3.99136C18.7651 1.70769 15.9072 0.291807 12.8358 0.0279418ZM21.9998 18.9999C21.9998 19.7956 21.6837 20.5587 21.1211 21.1213C20.5585 21.6839 19.7954 21.9999 18.9998 21.9999H13.0828C7.04878 21.9999 2.39978 18.0999 2.02478 12.7159C1.92212 11.2869 2.12771 9.85257 2.62763 8.50995C3.12755 7.16732 3.91013 5.94779 4.92238 4.93392C5.93463 3.92006 7.15292 3.13554 8.49475 2.63348C9.83658 2.13142 11.2706 1.92355 12.6998 2.02394C15.2662 2.25098 17.6517 3.44085 19.3769 5.3545C21.102 7.26814 22.0391 9.76376 21.9998 12.3399V18.9999Z" fill="#374957" />
  </g>
  <defs>
    <clipPath id="clip0_3_64">
      <rect width="24" height="24" fill="white" />
    </clipPath>
  </defs>
</svg>