<svg width="53" height="52" viewBox="0 0 53 52" fill="none" xmlns="http://www.w3.org/2000/svg">
  <path d="M26.5 0.5L26.505 25.9749L36.4498 2.44106L26.5145 25.9788L44.8847 7.96879L26.5216 25.9858L50.5209 16.2415L26.5256 25.9951L52.5 26L26.5256 26.0049L50.5209 35.7585L26.5216 26.0142L44.8847 44.0312L26.5145 26.0212L36.4498 49.5589L26.505 26.0251L26.5 51.5L26.495 26.0251L16.5502 49.5589L26.4855 26.0212L8.11523 44.0312L26.4784 26.0142L2.47912 35.7585L26.4744 26.0049L0.5 26L26.4744 25.9951L2.47912 16.2415L26.4784 25.9858L8.11523 7.96879L26.4855 25.9788L16.5502 2.44106L26.495 25.9749L26.5 0.5Z" stroke="white" stroke-width="4" />
</svg>