<svg width="116" height="345" viewBox="0 0 116 345" fill="none" xmlns="http://www.w3.org/2000/svg">
  <path d="M232.099 113.792C263.294 144.987 284.898 179.83 294.626 210.926C304.362 242.049 302.167 269.276 286.012 285.43C269.858 301.585 242.631 303.78 211.508 294.044C180.412 284.316 145.569 262.712 114.374 231.517C83.1799 200.323 61.5752 165.48 51.8475 134.383C42.1118 103.261 44.3067 76.0337 60.4612 59.8792C76.6157 43.7247 103.843 41.5298 134.965 51.2655C166.062 60.9933 200.905 82.5979 232.099 113.792Z" stroke="#737373" />
  <path d="M232.075 231.208C200.881 262.402 166.038 284.007 134.941 293.734C103.819 303.47 76.5915 301.275 60.437 285.121C44.2825 268.966 42.0876 241.739 51.8234 210.617C61.551 179.52 83.1557 144.677 114.35 113.483C145.545 82.2883 180.387 60.6836 211.484 50.9559C242.607 41.2202 269.834 43.4151 285.988 59.5696C302.143 75.7241 304.338 102.951 294.602 134.074C284.874 165.17 263.27 200.013 232.075 231.208Z" stroke="#737373" />
</svg>