<svg width="24" height="24" viewBox="0 0 24 24" fill="none" xmlns="http://www.w3.org/2000/svg">
  <g clip-path="url(#clip0_3_106)">
    <path d="M17.9999 9.06374C18 8.6615 17.9206 8.26321 17.7661 7.89181C17.6117 7.52041 17.3852 7.18324 17.0999 6.89974C16.516 6.34259 15.7399 6.03174 14.9329 6.03174C14.1258 6.03174 13.3498 6.34259 12.7659 6.89974L0.899887 18.7687C0.358306 19.3495 0.0633283 20.1178 0.0771231 20.9117C0.0909179 21.7057 0.412407 22.4632 0.973835 23.0248C1.53526 23.5864 2.29278 23.908 3.08672 23.922C3.88067 23.936 4.64904 23.6412 5.22989 23.0997L17.0999 11.2307C17.3857 10.9469 17.6124 10.6093 17.7668 10.2373C17.9213 9.86539 18.0005 9.4665 17.9999 9.06374ZM3.81589 21.6877C3.61373 21.8804 3.34517 21.9879 3.06589 21.9879C2.78661 21.9879 2.51804 21.8804 2.31589 21.6877C2.1173 21.4887 2.00578 21.2189 2.00578 20.9377C2.00578 20.6565 2.1173 20.3868 2.31589 20.1877L10.0849 12.4177L11.5899 13.9227L3.81589 21.6877ZM15.6879 9.81574L12.9999 12.5047L11.4999 10.9997L14.1889 8.31174C14.2847 8.20223 14.4021 8.11358 14.5336 8.05126C14.6651 7.98895 14.808 7.95431 14.9535 7.94948C15.0989 7.94465 15.2438 7.96974 15.3792 8.0232C15.5145 8.07665 15.6375 8.15733 15.7404 8.26024C15.8433 8.36315 15.924 8.48609 15.9774 8.62145C16.0309 8.75681 16.056 8.9017 16.0511 9.04716C16.0463 9.19261 16.0117 9.33552 15.9494 9.46704C15.887 9.59856 15.7984 9.71588 15.6889 9.81174L15.6879 9.81574ZM4.86289 2.85474L6.41289 2.41274L6.85489 0.862737C6.92609 0.614022 7.07634 0.395255 7.28293 0.239517C7.48951 0.0837801 7.74118 -0.000457764 7.99989 -0.000457764C8.25859 -0.000457764 8.51027 0.0837801 8.71685 0.239517C8.92343 0.395255 9.07368 0.614022 9.14489 0.862737L9.58689 2.41274L11.1369 2.85474C11.3856 2.92594 11.6044 3.0762 11.7601 3.28278C11.9158 3.48936 12.0001 3.74103 12.0001 3.99974C12.0001 4.25844 11.9158 4.51012 11.7601 4.7167C11.6044 4.92328 11.3856 5.07353 11.1369 5.14474L9.58689 5.58674L9.14489 7.13674C9.07368 7.38545 8.92343 7.60422 8.71685 7.75996C8.51027 7.91569 8.25859 7.99993 7.99989 7.99993C7.74118 7.99993 7.48951 7.91569 7.28293 7.75996C7.07634 7.60422 6.92609 7.38545 6.85489 7.13674L6.41289 5.58674L4.86289 5.14474C4.61417 5.07353 4.3954 4.92328 4.23967 4.7167C4.08393 4.51012 3.99969 4.25844 3.99969 3.99974C3.99969 3.74103 4.08393 3.48936 4.23967 3.28278C4.3954 3.0762 4.61417 2.92594 4.86289 2.85474ZM23.1369 17.1447L21.5869 17.5867L21.1449 19.1367C21.0737 19.3855 20.9234 19.6042 20.7168 19.76C20.5103 19.9157 20.2586 19.9999 19.9999 19.9999C19.7412 19.9999 19.4895 19.9157 19.2829 19.76C19.0763 19.6042 18.9261 19.3855 18.8549 19.1367L18.4129 17.5867L16.8629 17.1447C16.6142 17.0735 16.3954 16.9233 16.2397 16.7167C16.0839 16.5101 15.9997 16.2584 15.9997 15.9997C15.9997 15.741 16.0839 15.4894 16.2397 15.2828C16.3954 15.0762 16.6142 14.9259 16.8629 14.8547L18.4129 14.4127L18.8549 12.8627C18.9261 12.614 19.0763 12.3953 19.2829 12.2395C19.4895 12.0838 19.7412 11.9995 19.9999 11.9995C20.2586 11.9995 20.5103 12.0838 20.7168 12.2395C20.9234 12.3953 21.0737 12.614 21.1449 12.8627L21.5869 14.4127L23.1369 14.8547C23.3856 14.9259 23.6044 15.0762 23.7601 15.2828C23.9158 15.4894 24.0001 15.741 24.0001 15.9997C24.0001 16.2584 23.9158 16.5101 23.7601 16.7167C23.6044 16.9233 23.3856 17.0735 23.1369 17.1447ZM17.7549 2.49974L19.1109 2.11274L19.4999 0.754737C19.5632 0.538554 19.6949 0.348709 19.8751 0.21365C20.0554 0.0785913 20.2746 0.00559233 20.4999 0.00559233C20.7252 0.00559233 20.9443 0.0785913 21.1246 0.21365C21.3049 0.348709 21.4366 0.538554 21.4999 0.754737L21.8869 2.11074L23.2429 2.49774C23.4591 2.56105 23.6489 2.69271 23.784 2.87299C23.919 3.05328 23.992 3.27247 23.992 3.49774C23.992 3.723 23.919 3.9422 23.784 4.12248C23.6489 4.30276 23.4591 4.43443 23.2429 4.49774L21.8869 4.88474L21.4999 6.24374C21.4366 6.45992 21.3049 6.64977 21.1246 6.78482C20.9443 6.91988 20.7252 6.99288 20.4999 6.99288C20.2746 6.99288 20.0554 6.91988 19.8751 6.78482C19.6949 6.64977 19.5632 6.45992 19.4999 6.24374L19.1129 4.88874L17.7549 4.49974C17.5387 4.43643 17.3489 4.30476 17.2138 4.12448C17.0787 3.9442 17.0057 3.725 17.0057 3.49974C17.0057 3.27447 17.0787 3.05528 17.2138 2.87499C17.3489 2.69471 17.5387 2.56305 17.7549 2.49974Z" fill="#374957" />
  </g>
  <defs>
    <clipPath id="clip0_3_106">
      <rect width="24" height="24" fill="white" />
    </clipPath>
  </defs>
</svg>