<svg width="172" height="172" viewBox="0 0 172 172" fill="none" xmlns="http://www.w3.org/2000/svg">
  <path d="M83.705 2.03873C84.0278 -0.679576 87.9722 -0.679576 88.2951 2.03873L91.0009 24.8428C94.4948 54.2891 117.711 77.5053 147.157 80.9992L169.961 83.705C172.68 84.0278 172.68 87.9722 169.961 88.2951L147.157 91.0009C117.711 94.4948 94.4948 117.711 91.0009 147.157L88.2951 169.961C87.9722 172.68 84.0278 172.68 83.705 169.961L80.9992 147.157C77.5053 117.711 54.2891 94.4948 24.8428 91.0009L2.03873 88.2951C-0.679576 87.9722 -0.679576 84.0278 2.03873 83.705L24.8428 80.9992C54.2891 77.5053 77.5053 54.2891 80.9992 24.8428L83.705 2.03873Z" fill="#F8841D" />
</svg>