<svg width="24" height="24" viewBox="0 0 24 24" fill="none" xmlns="http://www.w3.org/2000/svg">
  <g clip-path="url(#clip0_3_67)">
    <path d="M23.5352 14.7255C23.3281 14.4739 23.0624 14.2771 22.7614 14.1523C22.4605 14.0274 22.1335 13.9784 21.8092 14.0094C20.0668 14.1472 18.3756 14.6641 16.854 15.524C15.3324 16.3839 14.0171 17.5659 13.0002 18.9874V13.9104C14.3967 13.6732 15.6644 12.9499 16.5794 11.8685C17.4943 10.787 17.9975 9.417 18.0002 8.00045C18.0002 5.20745 16.0572 2.84845 14.1562 0.90945C13.5798 0.346296 12.806 0.0310059 12.0002 0.0310059C11.1944 0.0310059 10.4205 0.346296 9.84417 0.90945C7.94317 2.84845 6.00017 5.20745 6.00017 8.00045C6.0028 9.417 6.50604 10.787 7.42097 11.8685C8.3359 12.9499 9.60363 13.6732 11.0002 13.9104V18.9874C9.98328 17.5659 8.66798 16.3839 7.14635 15.524C5.62471 14.6641 3.93352 14.1472 2.19117 14.0094C1.86686 13.9786 1.53992 14.0277 1.239 14.1525C0.938089 14.2773 0.672383 14.4741 0.465169 14.7255C0.259282 14.9699 0.115928 15.2608 0.0474636 15.5729C-0.0210008 15.8851 -0.0125222 16.2093 0.0721686 16.5175C2.11117 23.8554 11.5912 24.0005 11.9942 24.0005H12.0062C12.4062 24.0005 21.8902 23.8554 23.9292 16.5175C24.0134 16.2092 24.0215 15.885 23.9529 15.5729C23.8843 15.2608 23.7409 14.97 23.5352 14.7255ZM8.00017 8.00045C8.00017 5.34645 11.3182 2.28145 11.3382 2.26445C10.9732 3.20045 8.69317 8.90045 11.0002 9.00045C11.2654 9.00045 11.5197 8.89509 11.7073 8.70756C11.8948 8.52002 12.0002 8.26567 12.0002 8.00045C12.0757 6.22189 12.5029 4.47592 13.2572 2.86345C14.6882 4.39345 16.0002 6.15445 16.0002 8.00045C16.0002 9.06132 15.5787 10.0787 14.8286 10.8289C14.0785 11.579 13.061 12.0005 12.0002 12.0005C10.9393 12.0005 9.92189 11.579 9.17174 10.8289C8.4216 10.0787 8.00017 9.06132 8.00017 8.00045ZM2.00617 16.0005C3.8079 16.1464 5.53918 16.7654 7.02502 17.7949C8.51086 18.8243 9.69859 20.2278 10.4682 21.8635C7.97117 21.5175 3.20017 20.3004 2.00617 16.0005ZM13.5452 21.8615C14.321 20.2304 15.5091 18.83 16.9919 17.7988C18.4748 16.7676 20.2011 16.1411 22.0002 15.9815C20.8062 20.2835 16.0462 21.5114 13.5452 21.8615Z" fill="#374957" />
  </g>
  <defs>
    <clipPath id="clip0_3_67">
      <rect width="24" height="24" fill="white" />
    </clipPath>
  </defs>
</svg>